<!DOCTYPE svg PUBLIC "-//W3C//DTD SVG 1.1//EN" "http://www.w3.org/Graphics/SVG/1.1/DTD/svg11.dtd">
<!-- Uploaded to: SVG Repo, www.svgrepo.com, Transformed by: SVG Repo Mixer Tools -->
<svg width="256px" height="256px" viewBox="0 0 48 48" fill="none" xmlns="http://www.w3.org/2000/svg">
<g id="SVGRepo_bgCarrier" stroke-width="0"/>
<g id="SVGRepo_tracerCarrier" stroke-linecap="round" stroke-linejoin="round"/>
<g id="SVGRepo_iconCarrier"> <g id="idea"> <g id="idea_2"> <path id="Combined Shape" fill-rule="evenodd" clip-rule="evenodd" d="M23 5V7C23 7.55228 23.4477 8 24 8C24.5523 8 25 7.55228 25 7V5C25 4.44772 24.5523 4 24 4C23.4477 4 23 4.44772 23 5ZM26.887 29.9786H21.123C19.4134 29.9786 18.005 31.3089 18.005 32.9786V41.3486C18.005 42.7823 19.2093 43.9206 20.669 43.9206H27.329C28.7887 43.9206 29.995 42.7823 29.995 41.3486L30.0019 35.5387C34.1757 33.3634 37.0002 28.9948 37.0002 24.0022C37.0002 16.8239 31.1785 11.0022 24.0002 11.0022C16.8206 11.0022 11.0002 16.8232 11.0002 24.0022C11.0002 27.1579 12.1289 30.1397 14.1464 32.4827C14.5068 32.9012 15.1382 32.9484 15.5567 32.588C15.9752 32.2276 16.0224 31.5962 15.662 31.1777C13.9541 29.1942 13.0002 26.6743 13.0002 24.0022C13.0002 17.9278 17.9252 13.0022 24.0002 13.0022C30.0739 13.0022 35.0002 17.9285 35.0002 24.0022C35.0002 27.846 33.0212 31.253 30.0047 33.2223L30.005 32.9818C30.005 31.3093 28.5971 29.9786 26.887 29.9786ZM28.0035 34.2527L28.005 32.9806C28.005 32.4399 27.517 31.9786 26.887 31.9786H21.123C20.4932 31.9786 20.005 32.4398 20.005 32.9786V41.3486C20.005 41.6517 20.2895 41.9206 20.669 41.9206H27.329C27.7092 41.9206 27.995 41.651 27.995 41.3474L28.0009 36.3762C27.0928 36.6692 26.1399 36.8655 25.154 36.9523C24.6038 37.0008 24.1185 36.5941 24.0701 36.044C24.0216 35.4938 24.4283 35.0085 24.9784 34.9601C26.0387 34.8666 27.0538 34.6236 28.0035 34.2527ZM41 23H43C43.5523 23 44 23.4477 44 24C44 24.5523 43.5523 25 43 25H41C40.4477 25 40 24.5523 40 24C40 23.4477 40.4477 23 41 23ZM7 23H5C4.44772 23 4 23.4477 4 24C4 24.5523 4.44772 25 5 25H7C7.55228 25 8 24.5523 8 24C8 23.4477 7.55228 23 7 23ZM10.0001 8.58589L11.4141 9.99989C11.8046 10.3904 11.8046 11.0236 11.4141 11.4141C11.0236 11.8046 10.3904 11.8046 9.99989 11.4141L8.58589 10.0001C8.19537 9.60958 8.19537 8.97642 8.58589 8.58589C8.97642 8.19537 9.60958 8.19537 10.0001 8.58589ZM38.0001 11.4141L39.4141 10.0001C39.8046 9.60958 39.8046 8.97642 39.4141 8.58589C39.0236 8.19537 38.3904 8.19537 37.9999 8.58589L36.5859 9.99989C36.1954 10.3904 36.1954 11.0236 36.5859 11.4141C36.9764 11.8046 37.6096 11.8046 38.0001 11.4141Z" fill="#ffffff"/> </g> </g> </g>
</svg>